<svg width="13" height="11" viewBox="0 0 13 11" fill="none" xmlns="http://www.w3.org/2000/svg">
<path fill-rule="evenodd" clip-rule="evenodd" d="M5.56506 1C5.56506 0.867392 5.62973 0.740215 5.74485 0.646447C5.85996 0.552679 6.01609 0.5 6.17888 0.5H12.3171C12.4799 0.5 12.636 0.552679 12.7511 0.646447C12.8662 0.740215 12.9309 0.867392 12.9309 1V6C12.9309 6.13261 12.8662 6.25979 12.7511 6.35355C12.636 6.44732 12.4799 6.5 12.3171 6.5C12.1543 6.5 11.9982 6.44732 11.8831 6.35355C11.7679 6.25979 11.7033 6.13261 11.7033 6V1.5H6.17888C6.01609 1.5 5.85996 1.44732 5.74485 1.35355C5.62973 1.25979 5.56506 1.13261 5.56506 1Z" fill="#64CEB5"/>
<path fill-rule="evenodd" clip-rule="evenodd" d="M12.7516 0.645917C12.8088 0.692363 12.8542 0.747538 12.8851 0.808284C12.9161 0.869029 12.932 0.93415 12.932 0.999917C12.932 1.06568 12.9161 1.13081 12.8851 1.19155C12.8542 1.2523 12.8088 1.30747 12.7516 1.35392L1.70287 10.3539C1.58761 10.4478 1.43128 10.5005 1.26828 10.5005C1.10528 10.5005 0.948957 10.4478 0.833698 10.3539C0.718438 10.26 0.653687 10.1327 0.653687 9.99992C0.653687 9.86714 0.718438 9.7398 0.833698 9.64592L11.8825 0.645917C11.9395 0.599354 12.0072 0.562411 12.0818 0.537205C12.1564 0.511998 12.2363 0.499023 12.3171 0.499023C12.3978 0.499023 12.4777 0.511998 12.5523 0.537205C12.6269 0.562411 12.6946 0.599354 12.7516 0.645917Z" fill="#64CEB5"/>
</svg>
